<?xml version="1.0" encoding="UTF-8"?>
<!-- Generator: visioncortex VTracer 0.6.1 -->
<svg version="1.1" xmlns="http://www.w3.org/2000/svg" width="1280" height="302">
<path d="M0 0 C0.72453369 -0.00338379 1.44906738 -0.00676758 2.19555664 -0.01025391 C2.98768555 -0.01412109 3.77981445 -0.01798828 4.59594727 -0.02197266 C5.42416992 -0.01037109 6.25239258 0.00123047 7.10571289 0.01318359 C7.93006836 0.00158203 8.75442383 -0.01001953 9.60375977 -0.02197266 C10.79388672 -0.01617187 10.79388672 -0.01617187 12.00805664 -0.01025391 C12.73371826 -0.00687012 13.45937988 -0.00348633 14.20703125 0 C16.70868955 0.49516204 17.62324783 1.39454292 19.16821289 3.38818359 C19.16821289 4.04818359 19.16821289 4.70818359 19.16821289 5.38818359 C19.82821289 5.38818359 20.48821289 5.38818359 21.16821289 5.38818359 C22.45727539 6.84912109 22.45727539 6.84912109 23.79321289 8.76318359 C24.23922852 9.38966797 24.68524414 10.01615234 25.14477539 10.66162109 C26.16821289 12.38818359 26.16821289 12.38818359 26.16821289 14.38818359 C26.82821289 14.38818359 27.48821289 14.38818359 28.16821289 14.38818359 C28.54333008 15.11263672 28.91844727 15.83708984 29.30493164 16.58349609 C32.19779573 22.04860458 35.11422737 26.73802373 39.16821289 31.38818359 C39.16821289 32.04818359 39.16821289 32.70818359 39.16821289 33.38818359 C39.82821289 33.38818359 40.48821289 33.38818359 41.16821289 33.38818359 C41.16821289 34.37818359 41.16821289 35.36818359 41.16821289 36.38818359 C41.82821289 36.38818359 42.48821289 36.38818359 43.16821289 36.38818359 C44.53540039 38.11083984 44.53540039 38.11083984 46.04321289 40.45068359 C46.57817383 41.27697266 47.11313477 42.10326172 47.66430664 42.95458984 C48.87250365 44.90967228 50.00888117 46.87020316 51.10571289 48.88818359 C53.71855544 53.32209822 57.00856258 57.32577605 60.16821289 61.38818359 C60.49821289 41.58818359 60.82821289 21.78818359 61.16821289 1.38818359 C64.82651717 -0.44096855 69.14077655 0.16055824 73.16821289 0.13818359 C74.56040039 0.10724609 74.56040039 0.10724609 75.98071289 0.07568359 C76.86758789 0.07052734 77.75446289 0.06537109 78.66821289 0.06005859 C79.89024414 0.04604004 79.89024414 0.04604004 81.13696289 0.03173828 C81.80727539 0.14936523 82.47758789 0.26699219 83.16821289 0.38818359 C85.16821289 3.38818359 85.16821289 3.38818359 85.16821289 6.38818359 C85.82821289 6.38818359 86.48821289 6.38818359 87.16821289 6.38818359 C87.19133369 19.67005768 87.20912663 32.95192702 87.22002506 46.2338171 C87.22525447 52.4004328 87.23235316 58.56703478 87.24365234 64.73364258 C87.25447918 70.67934365 87.26048929 76.62503149 87.26309013 82.57074165 C87.26494475 84.84465303 87.26856606 87.11856363 87.27394295 89.39246941 C87.28115067 92.5654548 87.28220395 95.73838476 87.28173828 98.91137695 C87.28533356 99.86155701 87.28892883 100.81173706 87.29263306 101.79071045 C87.28226505 108.27413143 87.28226505 108.27413143 86.16821289 109.38818359 C83.61186047 109.54311404 81.1011183 109.61994541 78.54321289 109.63818359 C77.84325195 109.65880859 77.14329102 109.67943359 76.42211914 109.70068359 C71.27346054 109.73889256 67.73279342 108.80574201 63.16821289 106.38818359 C60.88161616 103.4377362 60.16821289 102.13087232 60.16821289 98.38818359 C59.50821289 98.38818359 58.84821289 98.38818359 58.16821289 98.38818359 C56.95068359 97.00219727 56.95068359 97.00219727 55.59399414 95.05615234 C55.09448242 94.34491211 54.5949707 93.63367188 54.08032227 92.90087891 C53.55245117 92.13356445 53.02458008 91.36625 52.48071289 90.57568359 C51.67150391 89.41504395 51.67150391 89.41504395 50.84594727 88.23095703 C47.31142912 83.13284953 43.90470011 77.97806374 40.66821289 72.68505859 C39.14316285 70.26008954 39.14316285 70.26008954 36.98071289 67.71630859 C35.16821289 65.38818359 35.16821289 65.38818359 35.16821289 63.38818359 C34.17821289 63.05818359 33.18821289 62.72818359 32.16821289 62.38818359 C30.78149414 60.68115234 30.78149414 60.68115234 29.48071289 58.57568359 C29.0437207 57.88861328 28.60672852 57.20154297 28.15649414 56.49365234 C27.16821289 54.38818359 27.16821289 54.38818359 27.16821289 50.38818359 C26.50821289 50.38818359 25.84821289 50.38818359 25.16821289 50.38818359 C25.16821289 49.72818359 25.16821289 49.06818359 25.16821289 48.38818359 C24.50821289 48.38818359 23.84821289 48.38818359 23.16821289 48.38818359 C23.1704335 49.12289886 23.17265411 49.85761414 23.17494202 50.61459351 C23.19495932 57.53055445 23.2101944 64.44651108 23.22002506 71.36249352 C23.22524896 74.91826994 23.23233767 78.47402248 23.24365234 82.02978516 C23.25657203 86.1153995 23.26144518 90.20098866 23.26586914 94.28662109 C23.27103043 95.5668515 23.27619171 96.84708191 23.2815094 98.16610718 C23.2816227 99.93771713 23.2816227 99.93771713 23.28173828 101.74511719 C23.28395889 102.78880463 23.2861795 103.83249207 23.28846741 104.9078064 C23.16821289 107.38818359 23.16821289 107.38818359 22.16821289 109.38818359 C18.96019056 109.50516618 15.75272264 109.57568966 12.54321289 109.63818359 C11.63958008 109.67169922 10.73594727 109.70521484 9.80493164 109.73974609 C8.92192383 109.75263672 8.03891602 109.76552734 7.12915039 109.77880859 C6.32268066 109.79975586 5.51621094 109.82070312 4.68530273 109.84228516 C0.91315979 109.16176276 -0.96289436 107.95400636 -3.83178711 105.38818359 C-4.72838712 102.14312383 -4.61069646 98.96663993 -4.54467773 95.6184082 C-4.54876648 94.62777878 -4.55285522 93.63714935 -4.55706787 92.61650085 C-4.56308669 89.34042634 -4.52612807 86.06636265 -4.48803711 82.79052734 C-4.48192228 80.51657103 -4.47816977 78.24260724 -4.47668457 75.96864319 C-4.46747675 71.20284358 -4.43861926 66.43771957 -4.39428711 61.67211914 C-4.3376897 55.55623935 -4.31586126 49.44089153 -4.30692291 43.32477474 C-4.29861861 38.62967076 -4.27898768 33.93467483 -4.25517273 29.23962593 C-4.24376027 26.98412505 -4.23424519 24.72861377 -4.22663879 22.47309685 C-4.21292389 19.32473275 -4.18566567 16.1767933 -4.15405273 13.02856445 C-4.15181702 12.09185913 -4.1495813 11.15515381 -4.14727783 10.19006348 C-4.13585754 9.33347641 -4.12443726 8.47688934 -4.1126709 7.59434509 C-4.10672157 6.85012267 -4.10077225 6.10590025 -4.09464264 5.33912563 C-3.71541742 2.52447522 -2.92288862 0.61940463 0 0 Z " fill="#000204" transform="translate(921.831787109375,93.61181640625)"/>
<path d="M0 0 C1.23685547 -0.04125 2.47371094 -0.0825 3.74804688 -0.125 C12.76952904 -0.20298148 12.76952904 -0.20298148 16.83984375 2.9140625 C19.36472478 7.04380774 20.62563247 11.75138665 21.9375 16.375 C24.41925216 24.65796991 27.20277743 32.74448324 30.3125 40.8125 C33.12100383 48.13624963 35.6509726 55.41350693 37.73046875 62.97412109 C39.84998576 70.46632536 42.67235151 77.69564192 45.47851562 84.953125 C52.07873824 102.10222516 52.07873824 102.10222516 51.6875 108.5 C49.49955683 110.68794317 44.65121179 109.77854848 41.625 109.8125 C40.37299805 109.85600586 40.37299805 109.85600586 39.09570312 109.90039062 C33.34821428 109.95862707 28.112278 109.48732761 23.6875 105.5 C21.93428585 102.37501961 21.05827136 99.2109076 20.1875 95.75 C19.3625 92.6975 18.5375 89.645 17.6875 86.5 C7.1275 86.5 -3.4325 86.5 -14.3125 86.5 C-16.90334491 93.69408517 -16.90334491 93.69408517 -19.48803711 100.89038086 C-19.9715564 102.22661499 -19.9715564 102.22661499 -20.46484375 103.58984375 C-20.79476318 104.50628662 -21.12468262 105.42272949 -21.46459961 106.36694336 C-22.3125 108.5 -22.3125 108.5 -23.3125 109.5 C-26.78458807 109.75098924 -30.2699062 109.68522096 -33.75 109.6875 C-35.22049805 109.70586914 -35.22049805 109.70586914 -36.72070312 109.72460938 C-37.65720703 109.72654297 -38.59371094 109.72847656 -39.55859375 109.73046875 C-40.42154053 109.73457764 -41.2844873 109.73868652 -42.17358398 109.74291992 C-44.3125 109.5 -44.3125 109.5 -46.3125 107.5 C-47.96241582 106.79289322 -49.62812256 106.12056011 -51.3125 105.5 C-49.69528487 100.00605639 -48.03140378 94.5369389 -46.19140625 89.11328125 C-45.49835943 87.05262203 -44.82223068 84.98627284 -44.15234375 82.91796875 C-42.13661998 76.7152608 -40.04498942 70.65580397 -37.28125 64.73828125 C-35.28222211 60.11955954 -33.85447147 55.28586996 -32.3125 50.5 C-31.77212416 48.91622565 -31.23058089 47.33284882 -30.6875 45.75 C-29.79883578 43.09818814 -29.08584855 40.54482603 -28.4375 37.8125 C-26.34825981 29.10733254 -22.97783179 20.64446575 -19.21875 12.53515625 C-18.2709992 10.40680209 -17.47219363 8.2557187 -16.6875 6.0625 C-13.64686161 -1.81551763 -7.4651267 0.06166341 0 0 Z M1.6875 35.5 C-0.94348218 41.5814506 -3.46872977 47.69236001 -5.6875 53.9375 C-6.19410156 55.35869141 -6.19410156 55.35869141 -6.7109375 56.80859375 C-7.58801695 59.87866221 -7.58801695 59.87866221 -6.3125 64.5 C-0.7025 64.5 4.9075 64.5 10.6875 64.5 C9.86627685 59.46138493 9.86627685 59.46138493 8.56640625 54.66015625 C8.35306641 53.98919922 8.13972656 53.31824219 7.91992188 52.62695312 C7.69884766 51.94568359 7.47777344 51.26441406 7.25 50.5625 C6.81295496 49.19949009 6.37675003 47.8362105 5.94140625 46.47265625 C5.7314502 45.81539551 5.52149414 45.15813477 5.30517578 44.48095703 C4.37647098 41.50249427 3.52956422 38.50401515 2.6875 35.5 C2.3575 35.5 2.0275 35.5 1.6875 35.5 Z " fill="#000204" transform="translate(260.3125,93.5)"/>
<path d="M0 0 C4.373337 -0.75670347 8.81892999 -0.60204109 13.25 -0.625 C14.47847656 -0.67011719 15.70695313 -0.71523437 16.97265625 -0.76171875 C25.64280998 -0.8274729 25.64280998 -0.8274729 29.06982422 1.26196289 C33.10379159 5.57632943 34.87606137 11.14972049 36.625 16.6875 C36.91858398 17.57091064 37.21216797 18.45432129 37.51464844 19.36450195 C38.35674428 21.90544474 39.17896992 24.45219201 40 27 C40.74803967 29.22982526 41.49763779 31.45912949 42.25 33.6875 C43.87398274 38.61307028 43.87398274 38.61307028 44.6237793 40.9152832 C46.36293009 46.20626259 48.24088494 51.43742558 50.15942383 56.66577148 C53.76521941 66.50593647 57.12414626 76.35170411 60.02905273 86.42138672 C61.48889486 91.44482353 63.14609834 96.26488867 65.3359375 101.02734375 C66.15154365 103.4501738 66.18046195 105.46064255 66 108 C63.63249158 110.36750842 57.92451421 109.32862595 54.75 109.375 C53.79480469 109.41238281 52.83960938 109.44976562 51.85546875 109.48828125 C44.77650771 109.57689133 44.77650771 109.57689133 40.9609375 106.7421875 C39.29500059 104.4125307 37.95905475 102.38688994 36.875 99.75 C36.58367187 99.06421875 36.29234375 98.3784375 35.9921875 97.671875 C34.56075886 93.81716165 33.30030008 89.90090024 32 86 C21.44 86 10.88 86 0 86 C-2.78983134 91.57966268 -4.65539221 95.62799741 -6.1875 101.4375 C-7.91040462 107.91040462 -7.91040462 107.91040462 -9 109 C-12.47208807 109.25098924 -15.9574062 109.18522096 -19.4375 109.1875 C-20.90799805 109.20586914 -20.90799805 109.20586914 -22.40820312 109.22460938 C-23.34470703 109.22654297 -24.28121094 109.22847656 -25.24609375 109.23046875 C-26.10904053 109.23457764 -26.9719873 109.23868652 -27.86108398 109.24291992 C-30 109 -30 109 -32 107 C-33.64991582 106.29289322 -35.31562256 105.62056011 -37 105 C-35.22004319 94.57453866 -30.84176517 83.3586752 -25.9375 73.96484375 C-24.68824279 71.34660885 -24.28011115 68.62885002 -23.6875 65.8046875 C-22.20349248 59.75061138 -20.04377015 53.8840684 -18 48 C-17.77876465 47.35708008 -17.5575293 46.71416016 -17.32958984 46.05175781 C-13.50950189 34.97209312 -13.50950189 34.97209312 -11.47265625 31.0859375 C-9.78093085 27.54094263 -8.9066627 23.99711289 -8.0625 20.1875 C-6.34044384 12.86750374 -4.20336578 6.30504866 0 0 Z M15 35 C11.29255149 43.82167591 8.30196015 52.47443445 7 62 C7.33 62.66 7.66 63.32 8 64 C13.28 64 18.56 64 24 64 C23.76294261 62.06967556 23.52382247 60.13957847 23.2734375 58.2109375 C23.04110142 56.33233434 22.85887654 54.4476419 22.6875 52.5625 C21.94156953 48.69722392 20.59156149 45.62885316 18.921875 42.08984375 C17.89300736 39.75745311 17.32610956 37.52734908 17 35 C16.34 35 15.68 35 15 35 Z " fill="#000204" transform="translate(799,94)"/>
<path d="M0 0 C0.66832352 -0.0049649 1.33664703 -0.00992981 2.02522278 -0.01504517 C4.24550389 -0.0297007 6.46571354 -0.03647459 8.68603516 -0.04199219 C10.22441613 -0.04774115 11.76279707 -0.05349892 13.30117798 -0.05926514 C16.53102961 -0.06978499 19.76085629 -0.0756211 22.99072266 -0.07910156 C27.1326481 -0.08458635 31.2742448 -0.10860958 35.41606712 -0.13707352 C38.59533658 -0.15568382 41.77452664 -0.16090464 44.95384598 -0.16243744 C46.48090028 -0.1654685 48.00795304 -0.1735123 49.53495407 -0.18662262 C51.67069336 -0.20364919 53.80562691 -0.20181167 55.94140625 -0.1953125 C57.1575058 -0.19895813 58.37360535 -0.20260376 59.6265564 -0.20635986 C62.60009766 0.16113281 62.60009766 0.16113281 64.51626587 1.49591064 C65.60009766 3.16113281 65.60009766 3.16113281 65.60009766 6.16113281 C66.26009766 6.16113281 66.92009766 6.16113281 67.60009766 6.16113281 C67.62694078 8.97369562 67.64685953 11.78600522 67.66259766 14.59863281 C67.67097656 15.40107422 67.67935547 16.20351562 67.68798828 17.03027344 C67.69661196 19.07408502 67.65237916 21.11797183 67.60009766 23.16113281 C66.60009766 24.16113281 66.60009766 24.16113281 64.73350525 24.28138733 C63.9185408 24.27916672 63.10357635 24.27694611 62.26391602 24.2746582 C61.34303696 24.27458267 60.4221579 24.27450714 59.47337341 24.27442932 C58.47234085 24.26926804 57.47130829 24.26410675 56.43994141 24.25878906 C55.42033829 24.25737411 54.40073517 24.25595917 53.35023499 24.25450134 C50.07932658 24.24888378 46.80848552 24.23632831 43.53759766 24.22363281 C41.3260101 24.21862007 39.11442148 24.21405678 36.90283203 24.20996094 C31.46856409 24.19890865 26.03433568 24.18215344 20.60009766 24.16113281 C20.61169922 25.11375 20.62330078 26.06636719 20.63525391 27.04785156 C20.64427734 28.30210938 20.65330078 29.55636719 20.66259766 30.84863281 C20.67419922 32.09 20.68580078 33.33136719 20.69775391 34.61035156 C20.61488439 37.62348735 20.30849215 40.24388621 19.60009766 43.16113281 C21.38625488 43.16729614 21.38625488 43.16729614 23.20849609 43.17358398 C27.62950842 43.19536752 32.04962974 43.24964876 36.47021484 43.3137207 C38.38288835 43.33690757 40.29568965 43.35129804 42.20849609 43.35668945 C44.9596324 43.36597418 47.70875678 43.40695209 50.45947266 43.45410156 C51.31377869 43.45016891 52.16808472 43.44623627 53.04827881 43.44218445 C58.97795572 43.58768495 58.97795572 43.58768495 62.12670898 46.48999023 C63.97800959 49.84625866 64.30662385 52.46898678 64.53759766 56.28613281 C64.62912109 57.50558594 64.72064453 58.72503906 64.81494141 59.98144531 C64.60009766 63.16113281 64.60009766 63.16113281 63.3364563 64.83383179 C61.24687684 66.4311406 60.20944795 66.54757072 57.60351562 66.57763672 C56.80613983 66.59420319 56.00876404 66.61076965 55.18722534 66.62783813 C54.33089508 66.631091 53.47456482 66.63434387 52.59228516 66.63769531 C51.71105988 66.65327484 50.82983459 66.66885437 49.92190552 66.68490601 C47.10631178 66.73246197 44.29096671 66.76020665 41.47509766 66.78613281 C38.65226179 66.82257506 35.8295684 66.86313692 33.00686646 66.90878296 C31.24968785 66.93609265 29.49240444 66.95740756 27.7350769 66.97232056 C23.85447185 66.64043694 23.85447185 66.64043694 20.60009766 68.16113281 C20.5000731 70.81766724 20.46132303 73.44242554 20.47509766 76.09863281 C20.47123047 76.84048828 20.46736328 77.58234375 20.46337891 78.34667969 C20.38270098 82.38436159 20.38270098 82.38436159 21.60009766 86.16113281 C35.79009766 86.49113281 49.98009766 86.82113281 64.60009766 87.16113281 C67.47868001 92.91829753 67.9698984 94.86978511 67.85009766 100.97363281 C67.84494141 101.65361328 67.83978516 102.33359375 67.83447266 103.03417969 C67.75516035 108.00607012 67.75516035 108.00607012 66.60009766 109.16113281 C64.55139903 109.27108804 62.4988777 109.31026096 60.44726562 109.32226562 C59.12854462 109.33187317 57.80982361 109.34148071 56.45114136 109.35137939 C54.99819104 109.35622894 53.54523872 109.36050739 52.09228516 109.36425781 C50.60832721 109.37000908 49.12436928 109.37576682 47.64041138 109.38153076 C44.52150119 109.39205481 41.40261686 109.3978872 38.28369141 109.40136719 C34.29909361 109.40683261 30.31484089 109.43081233 26.33035088 109.45933914 C23.26072215 109.47803025 20.19117511 109.48317471 17.12149429 109.48470306 C15.65356703 109.48771926 14.18564085 109.49571278 12.71776962 109.50888824 C10.65468549 109.52607303 8.59242486 109.52403818 6.52929688 109.51757812 C5.35760956 109.52122375 4.18592224 109.52486938 2.97872925 109.52862549 C-1.04536141 109.09092644 -3.76887387 107.9106543 -7.39990234 106.16113281 C-7.42302285 92.48810719 -7.44081593 78.81508618 -7.45171452 65.14204502 C-7.45694399 58.79382705 -7.46404279 52.44562241 -7.4753418 46.09741211 C-7.48616841 39.97664699 -7.49217869 33.85589473 -7.49477959 27.73512077 C-7.49663425 25.39422338 -7.50025563 23.05332672 -7.5056324 20.71243477 C-7.51283982 17.44605079 -7.51389341 14.17972066 -7.51342773 10.91333008 C-7.51702301 9.93509781 -7.52061829 8.95686554 -7.52432251 7.94898987 C-7.52294785 7.06412903 -7.52157318 6.17926819 -7.52015686 5.26759338 C-7.52107865 4.49420907 -7.52200045 3.72082476 -7.52295017 2.92400455 C-7.23248375 -1.23742639 -3.33968389 0.0187758 0 0 Z " fill="#000204" transform="translate(1074.39990234375,93.8388671875)"/>
<path d="M0 0 C1.69962891 -0.04157227 1.69962891 -0.04157227 3.43359375 -0.08398438 C13.32984263 -0.0556446 20.37026344 3.26767562 28.5 8.6875 C28.5 9.3475 28.5 10.0075 28.5 10.6875 C29.098125 10.955625 29.69625 11.22375 30.3125 11.5 C36.75440234 14.9970327 39.03505827 22.33004577 41.265625 28.96484375 C41.71346937 30.52910014 42.11363948 32.10693422 42.5 33.6875 C38.69754741 36.22246839 35.59225643 36.01871179 31.1875 36 C30.44048828 36.01611328 29.69347656 36.03222656 28.92382812 36.04882812 C24.07311804 36.05308687 20.66879685 35.42607886 16.5 32.6875 C16.066875 31.6975 15.63375 30.7075 15.1875 29.6875 C13.36077466 26.43998829 12.81318663 26.00104656 9.5 24.6875 C3.95313222 23.16483041 -1.11352604 23.78085922 -6.5 25.6875 C-9.8298566 28.28478815 -11.17348987 29.70796962 -12.5 33.6875 C-11.40203779 37.43887087 -10.84098676 38.46017549 -7.5 40.6875 C-2.17543346 42.45940234 3.30647101 43.69050654 8.8125 44.75 C19.93942033 46.90529323 29.7945214 51.36871445 36.6875 60.625 C37.285625 61.635625 37.88375 62.64625 38.5 63.6875 C39.221875 64.698125 39.94375 65.70875 40.6875 66.75 C44.17837758 72.92088202 43.55024102 80.62279762 43.4375 87.5 C42.10000675 92.04747704 39.4896844 95.08004918 36.5 98.6875 C35.901875 99.574375 35.30375 100.46125 34.6875 101.375 C27.72111985 108.73945901 18.1430588 110.62042496 8.3515625 110.98828125 C6.60947483 111.00733662 4.86715737 111.01096609 3.125 111 C1.75081909 110.99371582 1.75081909 110.99371582 0.34887695 110.98730469 C-9.94884774 110.81599487 -18.49724675 108.70826624 -27.5 103.6875 C-27.5 103.0275 -27.5 102.3675 -27.5 101.6875 C-28.4590625 101.2853125 -28.4590625 101.2853125 -29.4375 100.875 C-31.5 99.6875 -31.5 99.6875 -32.5 96.6875 C-35.00447516 95.46880071 -35.00447516 95.46880071 -37.5 94.6875 C-37.5 93.6975 -37.5 92.7075 -37.5 91.6875 C-38.16 91.6875 -38.82 91.6875 -39.5 91.6875 C-42.28456451 86.11837097 -43.45427722 80.94009052 -43.5 74.6875 C-43.005 73.6975 -43.005 73.6975 -42.5 72.6875 C-39.12618193 72.45376893 -35.75444999 72.31266481 -32.375 72.1875 C-30.94800781 72.08695313 -30.94800781 72.08695313 -29.4921875 71.984375 C-22.50537387 71.79029684 -22.50537387 71.79029684 -19.58032227 74.40063477 C-18.07122516 76.43392741 -16.79618463 78.51511031 -15.5 80.6875 C-13.91455398 82.46627322 -12.23586232 84.05082982 -10.5 85.6875 C-10.17 86.0175 -9.84 86.3475 -9.5 86.6875 C-6.69660365 86.81439057 -3.92882157 86.8727093 -1.125 86.875 C-0.34382813 86.88724609 0.43734375 86.89949219 1.2421875 86.91210938 C5.17635523 86.92221426 7.15592449 86.91688367 10.5 84.6875 C11.49 84.6875 12.48 84.6875 13.5 84.6875 C15.29392044 80.87541906 15.95791808 77.90034637 15.5 73.6875 C10.7631977 67.66434563 1.39237743 66.60624167 -5.6875 65.4375 C-16.54486303 63.38580219 -28.48382216 58.84729035 -35.23828125 49.6640625 C-35.86283203 48.68566406 -35.86283203 48.68566406 -36.5 47.6875 C-36.92667969 47.09710938 -37.35335938 46.50671875 -37.79296875 45.8984375 C-41.9478356 39.23363402 -41.6194801 30.60413557 -39.921875 23.1484375 C-38.68248446 19.62804098 -37.09228943 16.39249767 -34.5 13.6875 C-33.84 13.6875 -33.18 13.6875 -32.5 13.6875 C-32.273125 13.11 -32.04625 12.5325 -31.8125 11.9375 C-25.6200091 1.32180131 -10.96838803 -0.14349996 0 0 Z " fill="#000204" transform="translate(405.5,93.3125)"/>
<path d="M0 0 C0.9662606 -0.00043808 0.9662606 -0.00043808 1.95204163 -0.00088501 C4.07859831 0.00050694 6.20480344 0.0160614 8.33129883 0.03173828 C9.80674549 0.0354689 11.28219463 0.03831564 12.75764465 0.04031372 C16.6391383 0.04794637 20.52048204 0.06759161 24.4019165 0.08972168 C28.36338269 0.11018809 32.32487312 0.11931713 36.28637695 0.12939453 C44.05792964 0.15083792 51.82935884 0.18496933 59.60083008 0.22705078 C60.09583008 2.70205078 60.09583008 2.70205078 60.60083008 5.22705078 C61.92083008 5.55705078 63.24083008 5.88705078 64.60083008 6.22705078 C64.6276732 9.03961359 64.64759195 11.85192319 64.66333008 14.66455078 C64.67170898 15.46699219 64.68008789 16.26943359 64.6887207 17.09619141 C64.69734438 19.14000299 64.65311158 21.1838898 64.60083008 23.22705078 C63.04424526 24.7836356 61.52215272 24.39014477 59.35644531 24.43237305 C58.00515785 24.46229088 58.00515785 24.46229088 56.62657166 24.49281311 C55.64741287 24.5095256 54.66825409 24.5262381 53.65942383 24.54345703 C52.16331322 24.57462868 52.16331322 24.57462868 50.63697815 24.60643005 C47.43750165 24.67203715 44.23794025 24.73086212 41.03833008 24.78955078 C38.87490969 24.8327254 36.71149802 24.87633933 34.5480957 24.92041016 C29.23242844 25.02772987 23.91667543 25.12896547 18.60083008 25.22705078 C18.27083008 31.16705078 17.94083008 37.10705078 17.60083008 43.22705078 C21.7715918 43.24832031 21.7715918 43.24832031 26.02661133 43.27001953 C28.71740913 43.3006272 31.40795897 43.3397191 34.09863281 43.37963867 C35.96963746 43.40284569 37.84077325 43.41722073 39.71191406 43.42260742 C42.40098036 43.43187761 45.08797653 43.47282238 47.77661133 43.52001953 C48.61420486 43.51608688 49.4517984 43.51215424 50.31477356 43.50810242 C52.68017578 43.56762695 52.68017578 43.56762695 56.60083008 44.22705078 C60.14817562 48.23918856 59.99849107 52.34583116 59.85083008 57.47705078 C59.84567383 58.20923828 59.84051758 58.94142578 59.83520508 59.69580078 C59.75555282 65.07232804 59.75555282 65.07232804 58.60083008 66.22705078 C55.71830363 66.3872864 52.85704481 66.48659107 49.97192383 66.54345703 C49.10769302 66.56423813 48.24346222 66.58501923 47.3530426 66.60643005 C44.58155563 66.67202192 41.80997086 66.73085496 39.03833008 66.78955078 C37.16397085 66.83272686 35.28962165 66.87634084 33.4152832 66.92041016 C28.81056671 67.02771305 24.2057515 67.12895293 19.60083008 67.22705078 C18.6824337 71.97918008 18.39421693 76.64317132 18.28442383 81.46923828 C18.26364273 82.23761017 18.24286163 83.00598206 18.22145081 83.79763794 C18.15649539 86.23235845 18.0973237 88.66717925 18.03833008 91.10205078 C17.99509338 92.76091498 17.95147751 94.41976934 17.9074707 96.07861328 C17.80087004 100.12799183 17.69945337 104.17747041 17.60083008 108.22705078 C14.11500789 109.96996187 10.19185124 109.49649001 6.35083008 109.53955078 C5.08045898 109.58305664 5.08045898 109.58305664 3.78442383 109.62744141 C2.54112305 109.64000977 2.54112305 109.64000977 1.27270508 109.65283203 C0.52085938 109.66741455 -0.23098633 109.68199707 -1.00561523 109.69702148 C-4.70021576 108.97159247 -6.57892627 107.74736241 -9.39916992 105.22705078 C-10.30222956 101.94768251 -10.18824718 98.73284805 -10.12792969 95.34960938 C-10.13362473 94.34762009 -10.13931976 93.3456308 -10.14518738 92.3132782 C-10.15630582 88.99996606 -10.12421592 85.68862509 -10.09057617 82.37548828 C-10.08700048 80.07671338 -10.08564135 77.77793405 -10.08641052 75.47915649 C-10.0817171 70.66209466 -10.05685606 65.84570209 -10.01660156 61.02880859 C-9.96557378 54.84324353 -9.95416013 48.65841287 -9.95643711 42.47266197 C-9.95562287 37.72696882 -9.93919435 32.98143737 -9.91743279 28.23579788 C-9.90786351 25.95435434 -9.90196841 23.67289243 -9.89975166 21.3914299 C-9.89327346 18.20920071 -9.86707151 15.02776324 -9.83496094 11.84570312 C-9.8363205 10.89605179 -9.83768005 9.94640045 -9.83908081 8.9679718 C-9.82628586 8.10434525 -9.81349091 7.24071869 -9.80030823 6.35092163 C-9.79528069 5.59840307 -9.79025316 4.84588451 -9.78507328 4.07056236 C-8.77977582 -0.73187707 -3.87387076 -0.0147576 0 0 Z " fill="#000204" transform="translate(96.399169921875,93.77294921875)"/>
<path d="M0 0 C0.79541199 -0.00511093 1.59082397 -0.01022186 2.41033936 -0.01548767 C5.04186508 -0.02939784 7.67312937 -0.02842604 10.3046875 -0.02612305 C12.13167417 -0.03000882 13.95865994 -0.03434324 15.78564453 -0.03910828 C19.61558969 -0.04657327 23.44544266 -0.04627691 27.27539062 -0.04101562 C32.1885109 -0.03521657 37.10125474 -0.05216109 42.01431274 -0.0753603 C45.78721327 -0.09007539 49.56002264 -0.09097245 53.33294678 -0.08785057 C55.14468126 -0.08836477 56.95642071 -0.09362097 58.76812744 -0.10366249 C61.29879402 -0.11596848 63.82872069 -0.10927108 66.359375 -0.09765625 C67.1106366 -0.10529999 67.86189819 -0.11294373 68.63592529 -0.12081909 C73.71546455 -0.06916339 73.71546455 -0.06916339 76.0949707 1.69319153 C76.45292725 2.21507553 76.81088379 2.73695953 77.1796875 3.2746582 C77.56769531 3.82766602 77.95570313 4.38067383 78.35546875 4.95043945 C79.58354766 8.41350558 79.4284131 11.83695818 79.3671875 15.4621582 C79.3662207 16.56720703 79.3662207 16.56720703 79.36523438 17.69458008 C79.32019654 23.13414916 79.32019654 23.13414916 78.1796875 24.2746582 C68.2796875 24.6046582 58.3796875 24.9346582 48.1796875 25.2746582 C47.8496875 52.6646582 47.5196875 80.0546582 47.1796875 108.2746582 C43.82900801 109.94999795 40.11049958 109.54347768 36.4296875 109.5871582 C35.23085938 109.63066406 35.23085938 109.63066406 34.0078125 109.67504883 C33.2240625 109.68342773 32.4403125 109.69180664 31.6328125 109.70043945 C30.92286133 109.71502197 30.21291016 109.72960449 29.48144531 109.74462891 C25.9348482 109.02048811 23.93359026 107.61530884 21.1796875 105.2746582 C20.58970987 102.36691665 20.41427355 100.28737374 20.49853516 97.38500977 C20.497659 96.59438644 20.49678284 95.80376312 20.49588013 94.98918152 C20.50005492 92.38020436 20.54669714 89.7738101 20.59375 87.1652832 C20.60494264 85.35497441 20.61348251 83.54464743 20.61947632 81.73431396 C20.64236954 76.97285658 20.70129653 72.21249994 20.7677002 67.45147705 C20.82911239 62.59190767 20.85648903 57.73216015 20.88671875 52.87231445 C20.95103968 43.33927912 21.05342483 33.80706024 21.1796875 24.2746582 C20.04539307 24.31393433 20.04539307 24.31393433 18.88818359 24.35400391 C15.44389835 24.45828818 11.99994573 24.52308592 8.5546875 24.5871582 C7.36488281 24.62905273 6.17507813 24.67094727 4.94921875 24.71411133 C-4.94577763 24.8523096 -4.94577763 24.8523096 -8.61303711 22.01367188 C-11.5704127 18.34385694 -11.5704127 18.34385694 -11.51171875 15.13793945 C-11.50301758 14.02515625 -11.50301758 14.02515625 -11.49414062 12.88989258 C-11.45740234 12.12999023 -11.42066406 11.37008789 -11.3828125 10.5871582 C-11.38087891 9.8156543 -11.37894531 9.04415039 -11.37695312 8.24926758 C-11.32421875 6.01293945 -11.32421875 6.01293945 -10.8203125 2.2746582 C-7.11675765 -0.19437836 -4.28523576 -0.01413132 0 0 Z " fill="#000204" transform="translate(509.8203125,93.725341796875)"/>
<path d="M0 0 C0.89267578 0.01289062 1.78535156 0.02578125 2.70507812 0.0390625 C3.63384766 0.07257813 4.56261719 0.10609375 5.51953125 0.140625 C6.45990234 0.15867187 7.40027344 0.17671875 8.36914062 0.1953125 C10.69118182 0.24246054 13.01091891 0.31166482 15.33203125 0.390625 C20.25135818 8.90729703 19.83165952 17.09008308 19.6875 26.60546875 C19.6774837 28.26932251 19.6694028 29.93318895 19.66316223 31.59706116 C19.64234262 35.95137007 19.5983291 40.30511901 19.54840088 44.65917969 C19.47276255 51.65180683 19.4351621 58.64477488 19.3929081 65.6376667 C19.37519551 68.07852704 19.34907802 70.51918093 19.32133484 72.95994568 C19.30812289 74.44717324 19.29500045 75.93440159 19.28198242 77.42163086 C19.26769699 78.72241074 19.25341156 80.02319061 19.23869324 81.36338806 C19.11777233 84.31163769 19.11777233 84.31163769 20.33203125 86.390625 C22.13389893 86.42820923 22.13389893 86.42820923 23.97216797 86.46655273 C28.41889554 86.56055644 32.86546432 86.66079417 37.31201172 86.76293945 C39.23840629 86.80631501 41.16483996 86.84798814 43.09130859 86.88793945 C45.85656533 86.94557862 48.62162475 87.00929116 51.38671875 87.07421875 C52.25134735 87.09093124 53.11597595 87.10764374 54.00680542 87.12486267 C60.10428784 87.27675329 60.10428784 87.27675329 62.33203125 88.390625 C63.23441872 91.09778742 63.45054427 92.62839268 63.4296875 95.40234375 C63.42485352 96.53833008 63.42485352 96.53833008 63.41992188 97.69726562 C63.40735352 98.87579102 63.40735352 98.87579102 63.39453125 100.078125 C63.39001953 100.87541016 63.38550781 101.67269531 63.38085938 102.49414062 C63.36908975 104.45966757 63.35115473 106.42515585 63.33203125 108.390625 C60.61935557 109.74696284 58.48223795 109.5252776 55.4453125 109.53588867 C54.21063232 109.54226852 52.97595215 109.54864838 51.70385742 109.55522156 C50.35074909 109.55675 48.99764024 109.55786409 47.64453125 109.55859375 C46.26212529 109.56180571 44.87971968 109.56516974 43.49731445 109.56867981 C40.59878755 109.57467118 37.70029047 109.57651965 34.80175781 109.57592773 C31.08244609 109.575826 27.36332477 109.58948994 23.64405823 109.60669994 C20.7890942 109.61780121 17.93417652 109.61984754 15.07919312 109.61931801 C13.70762474 109.62050051 12.33605526 109.62493734 10.96450806 109.63265038 C9.04928023 109.64241395 7.13399676 109.63831742 5.21875 109.63354492 C3.58232544 109.63568245 3.58232544 109.63568245 1.9128418 109.63786316 C-0.66796875 109.390625 -0.66796875 109.390625 -2.66796875 107.390625 C-4.31788457 106.68351822 -5.98359131 106.01118511 -7.66796875 105.390625 C-7.73742433 92.29097742 -7.79075751 79.19137352 -7.82340527 66.09157944 C-7.83907312 60.00906631 -7.86033206 53.92667899 -7.89428711 47.84423828 C-7.92684027 41.97631846 -7.94481332 36.1085198 -7.95260048 30.24051666 C-7.95815123 27.99976951 -7.96899025 25.75902912 -7.98515892 23.51833344 C-8.00687914 20.38414588 -8.0099379 17.25046143 -8.00854492 14.11621094 C-8.01933075 13.18616745 -8.03011658 12.25612396 -8.04122925 11.29789734 C-8.01100544 5.02939026 -8.01100544 5.02939026 -6.28271484 1.81115723 C-4.11411108 -0.09661735 -2.86216389 -0.07292137 0 0 Z " fill="#000204" transform="translate(649.66796875,93.609375)"/>
<defs>
<clipPath id="clip0_2_2">
<rect width="190" height="50" fill="white"/>
</clipPath>
</defs>
</svg>
