<?xml version="1.0" standalone="no"?>
<!DOCTYPE svg PUBLIC "-//W3C//DTD SVG 20010904//EN"
 "http://www.w3.org/TR/2001/REC-SVG-20010904/DTD/svg10.dtd">
<svg version="1.0" xmlns="http://www.w3.org/2000/svg"
 width="1024.000000pt" height="1024.000000pt" viewBox="0 0 1024.000000 1024.000000"
 preserveAspectRatio="xMidYMid meet">

<g transform="translate(0.000000,1024.000000) scale(0.100000,-0.100000)"
fill="#000000" stroke="none">
<path d="M4635 10004 c-495 -25 -931 -106 -1385 -257 -712 -238 -1273 -594
-1825 -1158 -663 -678 -1114 -1471 -1345 -2364 -85 -330 -80 -255 -80 -1189 0
-913 -3 -861 65 -1147 57 -239 159 -576 181 -598 2 -2 9 1 16 6 7 6 51 27 98
48 47 20 86 38 88 40 1 1 -13 49 -33 106 -114 329 -199 723 -237 1094 -17 170
-17 738 0 905 71 687 284 1346 626 1935 310 535 755 1054 1226 1430 719 575
1591 894 2583 945 591 31 1259 -65 1842 -263 928 -315 1762 -934 2410 -1788
447 -590 762 -1274 864 -1878 12 -69 24 -154 26 -190 l6 -66 -49 -52 -49 -51
-12 126 c-67 694 -417 1476 -965 2162 -284 355 -556 625 -891 886 -442 344
-896 589 -1395 754 -1103 366 -2254 340 -3285 -73 -331 -132 -734 -358 -952
-534 -40 -32 -42 -35 -28 -56 8 -12 11 -27 7 -33 -4 -6 -47 -44 -97 -84 -470
-382 -849 -834 -1164 -1386 -108 -191 -223 -441 -315 -689 -37 -99 -75 -198
-86 -220 -21 -45 -88 -304 -119 -465 -106 -544 -106 -1157 0 -1700 50 -258
141 -567 240 -823 12 -31 20 -59 18 -61 -2 -1 -92 -46 -200 -99 -107 -53 -246
-127 -307 -164 l-112 -67 0 -123 c0 -68 2 -123 4 -123 3 0 24 13 48 29 125 84
642 351 681 351 22 0 22 -12 -3 -58 -11 -20 -31 -65 -46 -98 l-26 -62 -221
-110 c-122 -61 -269 -140 -327 -175 l-105 -64 0 -288 0 -288 130 -59 c72 -33
227 -102 345 -155 118 -52 264 -117 323 -144 89 -40 112 -47 128 -38 39 20
724 257 939 324 583 182 613 179 105 -10 -159 -60 -335 -125 -390 -146 -55
-20 -163 -65 -240 -98 -190 -84 -425 -179 -477 -192 -41 -11 -48 -9 -173 49
-71 33 -195 89 -275 125 -80 36 -207 95 -283 131 l-137 65 0 -133 0 -132 82
-39 c46 -21 137 -64 203 -95 66 -31 138 -65 160 -75 22 -10 117 -55 211 -101
l172 -81 268 92 c148 51 368 129 489 173 626 229 731 267 855 314 74 27 268
97 430 155 695 246 952 340 1240 453 255 100 1845 699 2013 759 29 10 147 52
262 94 299 108 704 253 810 289 50 17 95 37 100 44 6 7 56 27 112 44 197 60
568 237 634 301 35 34 87 39 112 11 15 -17 14 -19 -10 -37 -88 -65 -111 -85
-141 -124 -18 -24 -31 -46 -28 -48 5 -5 282 134 491 248 347 188 417 228 560
314 324 197 652 422 830 569 97 80 200 187 224 234 23 44 22 14 -2 -54 -53
-151 -143 -304 -248 -419 -124 -135 -379 -345 -599 -492 -99 -65 -367 -226
-440 -263 -80 -40 -252 -116 -330 -146 -113 -43 -531 -151 -700 -180 -127 -22
-378 -17 -429 9 -34 17 -34 17 -16 -3 17 -19 17 -20 -6 -29 -102 -39 -377
-147 -434 -171 -38 -15 -131 -52 -205 -80 -74 -29 -162 -63 -195 -75 -113 -44
-320 -123 -440 -168 -66 -25 -331 -125 -590 -222 -258 -97 -510 -192 -560
-210 -96 -35 -443 -166 -690 -260 -283 -108 -350 -133 -475 -179 -69 -25 -252
-93 -408 -151 -156 -58 -288 -105 -294 -105 -11 0 -1409 -523 -1643 -615 -88
-35 -212 -83 -275 -108 -439 -172 -668 -264 -679 -273 -1 -1 23 -39 55 -84 42
-58 62 -79 73 -74 32 12 171 65 381 142 118 44 350 131 515 192 165 62 308
115 317 117 11 3 78 -33 170 -90 391 -243 753 -422 1153 -570 1134 -419 2367
-443 3494 -67 397 133 729 281 1046 468 126 74 339 214 372 244 l22 21 -44 56
c-95 119 -92 117 -112 99 -31 -27 -210 -146 -342 -226 -161 -97 -499 -261
-711 -345 -660 -262 -1312 -382 -1980 -364 -813 22 -1582 232 -2242 610 -59
34 -107 65 -108 68 0 9 -4 7 235 94 429 156 487 177 695 251 371 132 449 160
695 249 132 48 322 116 422 150 100 35 187 66 193 70 6 3 27 1 46 -5 27 -9 33
-15 23 -21 -9 -5 2 -7 26 -4 30 4 35 3 20 -4 -17 -8 -15 -10 15 -11 19 0 43
-7 54 -15 17 -13 17 -14 -10 -21 -34 -8 -104 -44 -87 -44 7 0 36 9 65 21 29
11 92 34 141 50 48 16 266 94 485 173 218 79 467 169 552 200 l155 55 121 -61
121 -61 159 58 c174 63 501 185 801 298 106 39 193 74 193 78 0 3 -21 15 -47
28 -69 32 -265 143 -261 146 5 5 316 125 363 140 22 8 141 52 265 100 124 47
315 120 425 160 311 115 387 144 425 162 32 15 36 15 65 -2 97 -58 99 -59 167
-36 34 11 63 19 65 17 2 -2 -32 -76 -77 -163 l-80 -160 -123 -48 c-126 -49
-774 -295 -907 -345 -41 -15 -129 -49 -195 -75 -169 -66 -478 -182 -765 -287
-354 -129 -379 -138 -660 -237 -140 -49 -498 -178 -795 -286 -297 -108 -580
-212 -630 -230 -397 -144 -919 -333 -1005 -365 -58 -21 -168 -61 -245 -89
-302 -110 -394 -146 -396 -156 -1 -15 214 -95 401 -149 666 -193 1359 -242
2040 -145 520 74 1072 252 1600 515 266 133 637 357 813 490 182 139 423 373
561 548 244 306 553 815 693 1141 81 188 198 530 253 738 l23 88 81 66 c122
100 220 197 304 302 l75 94 23 166 c19 142 39 244 94 476 5 21 8 40 6 42 -1 1
-21 -23 -44 -55 -58 -78 -116 -142 -107 -117 53 139 75 286 75 485 -1 131 -21
354 -34 367 -3 3 -6 -2 -6 -11 0 -33 -67 -174 -124 -261 -63 -96 -56 -87 -128
-172 -79 -93 -219 -206 -235 -190 -3 4 -2 31 2 62 5 47 11 58 31 65 67 26 288
279 351 404 25 49 25 53 14 131 -17 108 -80 352 -131 505 -243 729 -661 1394
-1275 2029 -946 978 -2228 1530 -3611 1554 -126 3 -260 3 -299 1z m690 -498
c362 -44 693 -118 1030 -231 237 -79 576 -225 604 -259 19 -22 9 -59 -19 -74
-23 -13 -32 -12 -105 23 -233 109 -570 230 -835 299 -425 111 -941 168 -1322
146 -565 -32 -1010 -130 -1561 -344 -65 -25 -125 -46 -134 -46 -34 0 -57 66
-30 88 17 14 228 97 366 144 430 146 828 235 1206 268 149 13 647 4 800 -14z
m-530 -633 c18 -96 64 -231 107 -317 100 -198 243 -345 460 -473 258 -152 447
-192 823 -178 251 10 295 9 400 -10 103 -20 136 -36 295 -150 294 -211 503
-296 929 -381 124 -25 262 -54 306 -65 307 -76 643 -263 831 -461 78 -82 218
-288 279 -408 59 -116 146 -360 129 -360 -2 0 -16 24 -30 53 -99 194 -422 581
-574 686 -201 140 -278 187 -420 257 -204 100 -417 167 -605 189 -50 6 -50 6
35 -30 350 -148 533 -262 734 -459 138 -135 230 -268 290 -420 33 -80 15 -80
-28 1 -51 94 -93 158 -149 226 -43 52 -57 56 -33 9 18 -35 90 -249 112 -336
22 -85 44 -258 44 -351 0 -209 -41 -389 -131 -569 -77 -154 -142 -247 -256
-365 l-92 -96 -1 36 c-1 99 -65 293 -122 371 -7 9 -10 19 -8 21 3 2 45 28 95
57 158 95 301 253 360 399 27 66 59 190 51 198 -3 3 -18 -22 -35 -54 -40 -80
-89 -144 -177 -230 -86 -84 -138 -121 -242 -173 -112 -56 -123 -57 -174 -22
-218 149 -523 108 -776 -102 -180 -150 -301 -354 -363 -611 -25 -106 -30 -332
-9 -430 12 -57 11 -60 -9 -75 -25 -17 -41 -34 -102 -103 -121 -137 -295 -216
-794 -361 -213 -62 -317 -92 -485 -141 -63 -18 -203 -59 -310 -90 -107 -31
-295 -90 -418 -131 -122 -41 -318 -101 -435 -134 -238 -68 -364 -112 -420
-147 -38 -24 -82 -83 -69 -93 4 -3 12 -14 18 -25 6 -11 20 -21 30 -23 16 -3
17 -1 4 8 -12 10 -11 11 5 5 11 -5 31 -10 45 -12 24 -4 299 62 610 147 382
105 667 182 792 214 75 20 179 47 230 60 51 13 183 48 293 76 602 156 911 243
1229 347 129 42 143 45 210 39 101 -10 264 11 397 50 12 3 16 -2 15 -22 -1
-31 5 -29 -281 -120 -115 -36 -424 -137 -685 -224 -565 -187 -610 -201 -622
-194 -5 3 -17 -1 -26 -10 -10 -8 -80 -33 -157 -55 -77 -22 -158 -47 -179 -56
-30 -13 -41 -14 -46 -4 -5 7 -15 9 -26 4 -18 -7 -18 -7 0 -14 28 -11 -44 -28
-112 -27 -29 1 -48 0 -42 -2 5 -2 10 -8 10 -13 0 -6 -8 -6 -19 1 -11 5 -26 10
-33 10 -7 -1 -2 -7 11 -14 23 -13 22 -14 -43 -36 -37 -12 -70 -19 -73 -16 -4
3 9 9 28 13 33 7 33 7 9 15 -23 7 -22 7 5 4 17 -2 39 -1 49 3 19 7 19 8 -2 13
-12 4 -20 3 -18 -1 2 -3 -12 -7 -32 -7 -53 0 -137 -25 -120 -36 18 -12 -26
-45 -72 -54 -19 -4 -51 -14 -70 -22 -19 -8 -49 -14 -67 -14 -18 0 -35 -4 -38
-8 -12 -20 -375 -118 -785 -211 -199 -46 -239 -52 -345 -53 -109 -1 -124 1
-170 24 -38 19 -58 38 -83 80 -40 66 -37 101 12 170 59 82 131 121 373 198
221 72 521 162 758 227 72 20 164 47 205 60 41 13 154 47 250 75 248 74 697
213 815 253 240 83 398 161 511 255 l66 56 -8 65 c-5 36 -9 127 -8 201 1 124
4 146 38 262 20 71 36 130 36 132 0 3 -12 -1 -27 -9 -16 -8 -95 -41 -178 -74
-152 -61 -393 -180 -365 -181 8 0 78 18 154 40 77 22 142 38 144 36 12 -13
-72 -78 -133 -104 -38 -17 -133 -58 -210 -92 -77 -34 -219 -93 -315 -131 -96
-39 -188 -76 -205 -84 -16 -7 -48 -20 -69 -29 -97 -40 -9 -17 254 65 335 106
613 188 619 183 2 -2 -4 -15 -13 -28 -22 -34 -96 -80 -240 -149 -65 -32 -117
-59 -115 -62 3 -2 50 9 104 24 226 65 288 81 292 78 9 -9 -207 -86 -869 -310
l-387 -131 -128 87 c-207 142 -258 178 -261 186 -1 4 40 27 93 50 52 24 95 48
95 53 0 11 -69 2 -169 -23 -95 -24 -93 -24 -131 11 -31 29 -32 31 -25 92 10
91 32 183 55 228 11 22 16 40 10 40 -22 0 -62 -34 -75 -65 -15 -36 -2 -31
-225 -95 -80 -23 -208 -61 -285 -85 -453 -139 -407 -124 -630 -203 -334 -118
-818 -327 -1057 -456 -23 -13 -155 -83 -293 -156 -385 -204 -521 -280 -508
-280 16 0 234 87 333 133 41 19 208 100 370 179 162 80 338 164 390 188 52 23
163 74 245 112 170 79 319 140 568 232 231 86 248 91 587 200 357 114 433 137
439 131 2 -3 -1 -22 -7 -44 -25 -82 -9 -174 37 -215 27 -24 27 -33 -1 -42 -41
-13 -170 -76 -165 -81 3 -2 49 8 104 23 154 42 139 44 234 -28 79 -59 267
-189 362 -251 l44 -28 520 176 c287 96 531 175 542 175 34 0 24 -17 -21 -35
-146 -59 -759 -264 -1350 -451 l-118 -37 -72 55 c-95 72 -227 158 -303 196
-161 80 -363 116 -522 94 -276 -40 -505 -155 -694 -349 -97 -99 -151 -173
-204 -282 -90 -181 -131 -384 -122 -609 l4 -124 -31 -13 c-45 -20 -372 -120
-506 -154 -132 -35 -266 -53 -312 -44 -53 11 -199 180 -297 345 -73 122 -65
115 -177 138 -114 22 -425 109 -501 139 -55 21 -63 20 -63 -14 0 -23 19 -44
57 -64 36 -19 267 -89 413 -126 88 -22 140 -41 148 -52 8 -10 44 -72 81 -138
47 -83 64 -121 54 -123 -7 -2 -41 6 -76 18 -34 12 -125 37 -202 56 -159 39
-283 85 -402 150 -44 24 -83 44 -85 44 -11 0 6 -67 20 -77 13 -11 13 -13 1
-13 -8 0 -24 8 -35 18 -23 18 -114 160 -114 177 0 20 114 212 145 243 1 2 18
-8 38 -21 35 -23 181 -70 403 -128 101 -27 122 -29 163 -20 25 6 91 15 146 20
81 8 104 8 121 -4 34 -22 103 -98 116 -128 15 -32 15 -32 62 -12 20 8 116 36
214 60 168 43 179 47 211 83 173 189 224 242 231 242 4 0 17 -15 28 -32 14
-22 22 -28 25 -18 57 217 170 412 347 597 52 54 66 73 49 68 -75 -24 -235
-177 -323 -308 -54 -81 -61 -88 -104 -99 -26 -6 -191 -61 -367 -121 -284 -97
-483 -162 -697 -229 -65 -20 -68 -20 -145 -3 -108 24 -295 79 -395 115 -109
40 -153 70 -168 115 -11 33 -9 42 18 98 17 34 38 71 46 82 16 20 16 20 38 -9
59 -78 112 -115 220 -150 78 -26 176 -34 260 -20 56 10 46 20 -25 28 -117 12
-297 75 -297 104 0 17 121 136 250 246 165 141 418 327 579 425 297 181 993
551 1277 678 95 43 95 43 419 338 278 253 437 358 756 501 689 308 1366 443
2078 413 249 -10 592 -57 619 -83 3 -3 -10 -12 -29 -20 -126 -53 -310 -143
-379 -185 l-81 -50 -192 6 c-209 7 -190 9 -457 -58 -202 -50 -427 -127 -543
-186 -173 -87 -302 -215 -479 -475 -117 -171 -139 -208 -122 -208 14 0 200 55
304 90 496 166 765 272 1032 406 141 71 195 106 444 293 139 104 222 157 328
206 187 87 362 137 546 155 364 35 701 173 827 338 41 55 63 127 63 213 0 183
-151 407 -371 552 -96 64 -271 153 -375 193 -200 76 -857 305 -1049 365 -338
106 -584 192 -595 208 -3 5 -36 14 -75 20 -113 19 -322 81 -429 127 -401 174
-642 446 -726 820 -6 27 -18 117 -25 199 -8 83 -16 159 -18 170 -2 11 5 40 17
64 l21 43 12 -128 c7 -70 20 -165 28 -211z m-281 235 c-3 -13 -12 -34 -19 -48
-7 -14 -23 -68 -36 -120 -12 -52 -27 -98 -32 -101 -5 -4 -41 -9 -80 -13 -40
-3 -107 -11 -150 -17 l-79 -12 4 -71 3 -71 -38 -9 c-46 -12 -52 -5 -61 67 -4
28 -9 54 -11 58 -5 7 -51 -1 -160 -26 -181 -42 -240 -58 -334 -90 -58 -19
-106 -35 -107 -35 -1 0 -10 23 -19 50 -9 28 -22 50 -28 50 -6 0 -41 -10 -79
-22 -75 -24 -80 -32 -51 -93 10 -22 13 -39 7 -44 -5 -5 -65 -31 -134 -59 -115
-46 -237 -102 -318 -145 l-33 -18 30 -54 c17 -30 31 -61 31 -70 0 -8 -18 -24
-40 -35 l-39 -20 -37 66 c-33 58 -38 64 -53 51 -9 -8 -38 -26 -66 -40 -117
-59 -343 -212 -522 -355 l-105 -83 -18 23 c-10 13 -45 57 -79 98 -33 41 -61
80 -61 86 0 13 173 152 325 261 461 329 1039 594 1610 737 231 57 569 113 758
124 25 2 28 -1 21 -20z m632 14 c9 -5 8 -24 -2 -72 -9 -41 -12 -89 -8 -132 l7
-68 -77 0 c-70 0 -77 2 -86 23 -9 21 -50 223 -50 246 0 13 197 16 216 3z
m-436 -46 c0 -3 -4 -8 -10 -11 -5 -3 -10 -1 -10 4 0 6 5 11 10 11 6 0 10 -2
10 -4z m1001 -16 c311 -62 758 -203 1013 -320 194 -89 282 -132 362 -180 129
-76 214 -133 214 -143 0 -14 -144 -237 -153 -237 -4 0 -31 16 -59 35 -28 19
-55 32 -59 29 -4 -2 -22 -29 -39 -59 l-31 -55 -40 20 c-21 11 -39 26 -39 34 0
7 12 35 26 60 25 46 26 48 8 62 -25 19 -274 140 -391 189 -102 43 -107 50 -79
116 l14 33 -70 28 c-38 15 -73 28 -78 28 -5 0 -19 -22 -31 -50 -12 -27 -23
-50 -24 -50 -2 0 -59 18 -127 40 -104 34 -398 111 -462 122 -17 3 -21 -6 -31
-59 -6 -35 -14 -65 -17 -69 -10 -10 -79 8 -85 22 -2 7 11 102 31 211 20 109
36 201 36 206 0 9 -8 10 111 -13z m-1084 -362 c-2 -13 -4 -5 -4 17 -1 22 1 32
4 23 2 -10 2 -28 0 -40z m2943 -265 c232 -77 503 -244 656 -405 140 -147 195
-254 202 -390 l4 -88 67 -37 c65 -36 211 -167 199 -178 -3 -4 -46 22 -95 57
-48 35 -113 78 -144 96 l-56 32 -5 72 c-3 40 -11 86 -19 101 -14 27 -15 26
-17 -40 -3 -70 -17 -104 -55 -135 -33 -26 -39 -11 -15 35 29 57 36 166 15 238
-24 80 -83 171 -161 250 -83 84 -129 113 -67 43 42 -48 96 -143 112 -196 15
-55 -12 -37 -60 38 -102 160 -279 301 -588 469 -79 43 -143 80 -143 82 0 8 61
-8 170 -44z m-1824 -216 c30 -15 63 -47 50 -47 -9 0 -95 26 -156 47 -43 15
-90 48 -90 64 0 9 150 -40 196 -64z m1985 46 c13 -17 13 -17 -6 -3 -11 8 -22
16 -24 17 -2 2 0 3 6 3 6 0 17 -8 24 -17z m127 -87 c60 -56 93 -105 118 -173
28 -77 44 -213 25 -213 -6 0 -11 -13 -11 -28 0 -52 -74 -110 -175 -138 -139
-38 -389 3 -608 100 -111 49 -346 221 -326 240 2 2 44 -23 93 -55 186 -123
418 -217 593 -240 79 -11 100 -10 160 4 80 20 136 56 177 115 24 34 31 55 34
108 4 59 1 72 -31 137 -20 40 -57 95 -82 124 -25 28 -45 54 -45 58 0 14 47 -9
78 -39z m-3548 -89 c85 -11 95 -14 106 -37 50 -107 74 -162 74 -169 0 -4 -42
0 -92 10 -224 43 -554 49 -782 14 -394 -61 -779 -215 -1100 -440 -222 -155
-472 -385 -599 -550 -240 -312 -381 -596 -487 -980 -80 -292 -105 -510 -97
-840 8 -294 33 -451 123 -757 4 -12 -14 -29 -65 -63 -39 -26 -73 -51 -77 -56
-12 -20 -23 -6 -43 54 -186 570 -168 1263 50 1882 107 305 286 623 476 846
261 307 457 488 698 645 414 269 842 413 1365 458 72 6 346 -4 450 -17z m413
-104 c15 -25 -1 -26 -39 -3 -34 21 -73 84 -74 118 0 13 96 -84 113 -115z
m2809 81 c39 -27 48 -44 24 -44 -17 0 -78 42 -84 58 -6 20 19 14 60 -14z
m-5728 -191 c155 -165 205 -224 200 -236 -3 -7 -19 -23 -36 -36 l-30 -24 -116
123 c-65 68 -130 139 -145 159 l-28 34 33 34 c17 18 34 33 36 33 2 0 41 -39
86 -87z m2034 -149 c36 -37 75 -89 89 -120 23 -51 26 -54 62 -54 21 0 80 -7
132 -16 308 -53 596 -165 758 -298 45 -36 122 -93 173 -128 51 -34 115 -82
142 -107 158 -149 339 -448 420 -695 49 -149 48 -154 -19 -159 -26 -2 -29 2
-37 38 -5 22 -16 59 -24 82 -15 40 -17 41 -47 32 -18 -5 -37 -9 -42 -9 -6 0
-26 35 -44 78 -42 98 -115 222 -185 315 -78 104 -271 288 -332 317 -27 13 -70
40 -95 61 -155 128 -411 233 -684 280 -159 28 -423 23 -590 -11 -288 -57 -553
-176 -783 -350 -64 -48 -137 -109 -162 -134 -24 -25 -48 -46 -53 -46 -4 0 -25
13 -45 29 -20 17 -49 33 -65 37 -33 8 -84 -11 -97 -37 -24 -43 -1 -111 51
-150 l21 -16 -45 -59 c-78 -103 -136 -196 -190 -301 l-51 -101 28 -61 c29 -59
30 -60 83 -71 57 -12 57 -11 53 -85 -3 -69 14 -49 38 45 l19 75 108 -2 c125
-3 155 -15 155 -64 0 -16 -7 -46 -16 -67 -8 -20 -17 -66 -18 -102 -4 -77 -19
-114 -53 -129 -35 -16 -79 -13 -98 6 -23 23 -13 95 19 144 17 25 23 44 18 60
-6 23 -6 23 -12 -6 -4 -26 -10 -30 -42 -33 -40 -3 -42 -7 -53 -87 -10 -79 -13
-85 -47 -85 -28 0 -30 2 -24 28 3 15 9 55 12 88 l7 62 -55 16 c-59 17 -83 37
-93 76 -5 21 -16 28 -57 38 -28 6 -52 11 -53 9 -7 -8 -65 -171 -79 -218 -77
-271 -98 -589 -56 -849 12 -68 23 -135 27 -149 6 -24 6 -24 -53 -17 -32 3 -79
10 -104 14 l-45 7 -17 109 c-9 59 -20 158 -24 218 l-7 110 -46 -5 c-25 -3 -56
-9 -68 -12 -17 -6 -23 -3 -23 9 0 8 -10 36 -22 61 -21 44 -22 48 -9 172 13
131 35 266 51 308 l9 24 70 -20 c39 -10 77 -19 85 -19 10 0 18 22 26 73 19
113 95 339 152 449 47 90 50 102 38 122 -22 33 -47 89 -54 117 -5 21 4 41 41
95 76 114 112 154 137 154 12 0 43 -13 69 -30 59 -37 70 -37 96 -1 26 37 26
35 -6 72 -16 17 -36 49 -46 72 l-18 42 150 146 c190 185 224 204 344 194 l82
-6 98 87 c76 68 100 96 109 127 18 61 55 80 145 73 89 -7 108 0 164 59 24 26
58 52 74 59 38 16 182 52 260 66 96 16 107 17 160 19 49 1 51 0 113 -65z
m1333 -109 c102 -124 108 -131 89 -120 -46 28 -180 190 -180 218 0 13 -6 19
91 -98z m-3656 -27 c47 -45 85 -84 85 -88 0 -3 -23 -33 -51 -65 -113 -132
-276 -361 -393 -552 l-32 -53 -97 61 -96 61 19 39 c90 175 439 679 471 679 5
0 47 -37 94 -82z m4546 2 c77 -33 204 -83 282 -109 221 -76 266 -94 261 -103
-6 -9 1 -12 51 -23 17 -4 25 -9 19 -12 -35 -12 -619 215 -734 285 -56 35 -28
26 121 -38z m792 -245 c295 -77 590 -244 709 -402 85 -112 119 -240 99 -365
-29 -186 -195 -399 -398 -511 l-68 -38 -77 12 c-43 7 -78 15 -78 19 0 3 17 12
37 19 90 33 246 148 293 217 70 101 83 141 88 261 4 100 2 122 -21 196 -60
192 -228 372 -437 469 -173 81 -183 86 -233 102 -56 19 -107 44 -107 53 0 9
90 -5 193 -32z m-2953 -41 c11 -27 9 -48 -17 -174 -22 -112 -21 -110 -53 -110
-23 0 -31 5 -34 23 -13 64 -36 227 -36 255 l0 32 65 0 c61 0 66 -2 75 -26z
m1782 -259 c33 -5 47 -18 118 -108 170 -214 308 -496 345 -708 l7 -36 -71 -12
c-74 -13 -91 -10 -91 16 0 34 -74 233 -130 348 -84 174 -208 355 -343 501
l-65 70 96 -32 c54 -18 114 -35 134 -39z m-834 -51 c23 -19 33 -35 28 -43 -5
-7 -55 -43 -113 -81 -86 -56 -109 -67 -124 -59 -11 5 -19 14 -19 19 0 5 30 59
67 119 l67 110 29 -17 c16 -9 45 -31 65 -48z m-1874 -38 c26 -35 46 -68 46
-73 0 -14 -94 -96 -98 -85 -1 4 -23 44 -49 86 -38 65 -44 80 -31 87 8 4 26 17
39 28 13 11 29 20 36 21 7 0 32 -29 57 -64z m1024 42 c6 -6 12 -23 12 -39 0
-32 -16 -37 -52 -18 -24 13 -34 5 -42 -37 -7 -30 -5 -32 31 -41 37 -9 38 -11
36 -50 -2 -55 -20 -119 -39 -138 -19 -19 -109 -21 -121 -2 -4 6 -8 40 -9 74
-3 73 -9 89 -30 72 -19 -15 -18 -49 1 -49 9 0 15 -9 15 -25 0 -14 -4 -25 -9
-25 -5 0 -11 -12 -13 -27 -3 -24 -8 -28 -33 -28 -23 0 -31 5 -33 22 -2 14 -11
23 -25 25 -34 5 -25 42 41 171 2 4 -4 7 -12 7 -13 0 -15 8 -10 43 8 52 19 67
50 67 22 0 24 -4 24 -55 0 -52 1 -55 25 -55 21 0 25 -5 26 -32 0 -28 2 -30 9
-13 5 11 9 32 9 47 1 15 8 46 17 68 12 30 24 42 48 49 33 9 63 5 84 -11z
m2587 -39 c14 -7 7 -7 -20 -3 -22 3 -47 10 -55 15 -18 12 44 1 75 -12z m689
-116 c62 -112 80 -176 80 -278 0 -75 -5 -99 -26 -145 -59 -128 -174 -224 -348
-291 l-75 -29 -200 10 c-110 5 -231 13 -270 17 -63 6 -67 7 -35 14 19 4 134
29 255 54 268 57 346 90 443 188 96 97 124 141 148 232 27 101 13 208 -42 311
l-26 49 29 -32 c16 -18 46 -63 67 -100z m571 66 c49 -45 112 -139 139 -209 61
-152 23 -335 -96 -465 -61 -67 -179 -158 -238 -183 -57 -25 -190 -63 -190 -54
0 4 21 18 47 32 128 67 282 209 330 304 102 200 92 374 -33 574 -33 53 -16 54
41 1z m-4656 -60 c42 -15 46 -38 27 -145 -30 -163 -35 -181 -62 -193 -37 -16
-79 -13 -105 8 l-23 18 19 114 c22 141 38 185 73 198 36 13 34 13 71 0z m-759
-74 c19 -19 63 -54 99 -78 143 -95 322 -208 446 -282 72 -42 143 -86 160 -98
16 -11 120 -75 231 -142 l201 -122 -26 -36 c-14 -20 -31 -37 -37 -37 -7 0 -34
15 -60 33 -27 19 -114 78 -194 132 -150 101 -432 300 -555 390 -38 28 -110 80
-159 116 -48 35 -107 78 -129 94 -23 17 -43 39 -45 48 -6 29 32 19 68 -18z
m571 -124 c-11 -67 -23 -126 -26 -131 -8 -12 -55 9 -55 25 0 6 7 56 15 111 8
54 15 104 15 111 0 13 50 23 63 13 4 -4 -1 -61 -12 -129z m1544 109 c18 -20
18 -24 1 -126 -32 -185 -46 -214 -112 -214 -58 0 -74 14 -74 65 0 34 5 47 22
59 37 26 48 20 48 -25 0 -28 4 -39 13 -37 13 5 54 224 43 235 -10 10 -16 -2
-24 -48 -8 -45 -30 -60 -60 -40 -21 13 3 116 31 136 31 22 90 19 112 -5z m166
4 c25 -13 30 -20 27 -46 -2 -17 -11 -36 -20 -42 -14 -9 -21 -6 -34 13 -16 23
-18 23 -31 6 -7 -11 -13 -31 -13 -46 0 -23 5 -28 35 -33 33 -6 35 -9 35 -44
-1 -99 -34 -152 -94 -152 -57 0 -70 18 -63 86 18 162 41 240 75 258 35 19 46
19 83 0z m1812 -40 c196 -50 295 -173 243 -299 -17 -39 -32 -47 -23 -13 9 32
-10 108 -38 149 -29 45 -141 121 -226 154 -74 28 -49 33 44 9z m-5759 -421
c28 -10 53 -19 55 -20 1 -1 -15 -57 -37 -125 -141 -437 -196 -853 -172 -1310
19 -358 65 -623 172 -980 l41 -138 -41 -41 -41 -41 -26 57 c-31 71 -75 215
-114 370 -145 584 -158 1211 -36 1768 47 213 125 477 142 477 3 0 28 -8 57
-17z m4749 -75 c35 -93 41 -87 -128 -134 -82 -23 -174 -48 -202 -57 -54 -16
-62 -13 -40 16 17 23 124 77 153 77 17 0 24 6 24 18 0 10 10 28 23 40 25 24
126 82 143 82 6 0 19 -19 27 -42z m-4430 -19 l24 -11 -22 -71 c-112 -354 -165
-697 -165 -1073 0 -340 40 -626 126 -911 19 -64 34 -118 32 -122 -2 -3 -26
-28 -54 -54 l-52 -48 -20 68 c-112 370 -150 592 -159 939 -12 450 53 817 214
1207 20 48 39 87 44 87 4 0 19 -5 32 -11z m4024 -115 c11 -28 -24 -84 -63
-100 -38 -16 -56 -12 -36 8 24 24 13 38 -28 38 -37 0 -40 2 -40 28 0 16 3 32
7 35 3 4 39 7 80 7 58 0 75 -3 80 -16z m-1171 -78 c28 -13 63 -37 79 -52 29
-31 60 -92 51 -102 -3 -3 -7 -3 -9 -1 -70 95 -137 139 -211 139 -50 0 -132
-37 -166 -75 -24 -26 -22 -25 43 10 63 35 72 37 137 33 63 -3 73 -7 106 -38
37 -36 64 -85 64 -118 0 -28 -69 -126 -107 -152 -19 -13 -54 -25 -81 -27 -41
-4 -53 -1 -96 29 -62 41 -91 94 -91 165 0 56 -8 60 -24 10 -9 -25 -8 -44 3
-80 8 -26 10 -44 5 -41 -5 3 -16 29 -24 59 -22 74 -8 122 51 182 84 84 174
104 270 59z m3914 -693 c84 -39 152 -109 195 -198 55 -115 69 -176 68 -300 -3
-329 -211 -617 -491 -679 -271 -60 -495 175 -495 519 -1 129 22 229 77 337 78
156 166 248 293 312 74 37 116 46 208 42 66 -2 93 -8 145 -33z m-5354 -7 c3
-8 0 -32 -6 -55 -8 -30 -16 -41 -30 -41 -15 0 -20 7 -20 25 0 33 -28 33 -40
-1 -16 -40 -12 -54 13 -54 48 0 60 -20 52 -87 -12 -104 -55 -146 -135 -128
-35 8 -48 42 -34 84 12 35 57 37 62 4 4 -28 18 -29 32 -4 26 49 8 81 -46 81
-28 0 -29 12 -14 92 22 109 12 98 91 98 50 0 71 -4 75 -14z m-196 2 c0 -2 -14
-77 -30 -166 -17 -90 -30 -168 -30 -173 0 -5 -14 -9 -30 -9 -34 0 -34 -17 -5
174 14 88 12 112 -5 101 -14 -9 -22 14 -15 45 6 29 9 30 61 30 30 0 54 -1 54
-2z m-189 -180 c36 -10 36 -11 31 -57 -8 -78 -12 -81 -103 -81 -94 0 -94 1
-84 96 l7 66 56 -7 c32 -3 73 -11 93 -17z m739 -522 c0 -2 -37 -21 -82 -42
-143 -66 -455 -222 -536 -267 -42 -24 -102 -57 -132 -74 -99 -55 -134 -75
-265 -162 -290 -190 -456 -321 -640 -505 l-119 -119 -43 49 c-24 27 -43 51
-43 54 0 4 15 32 34 63 111 184 355 410 606 563 108 65 336 177 479 234 234
93 741 234 741 206z m1018 -936 c80 -13 140 -41 194 -91 50 -44 38 -49 -36
-15 -78 36 -123 46 -206 46 -343 0 -609 -313 -587 -690 14 -235 131 -394 326
-440 117 -27 283 15 411 105 35 25 70 45 77 45 38 0 -10 -58 -100 -121 -201
-141 -467 -130 -623 27 -58 58 -120 175 -140 263 -20 91 -14 286 11 370 78
253 272 447 498 496 78 17 97 17 175 5z m-1355 -468 c15 -16 11 -22 -45 -85
-68 -76 -104 -98 -212 -127 l-75 -21 -71 47 c-39 26 -69 51 -68 56 2 6 96 39
208 75 113 36 207 67 209 69 10 10 39 3 54 -14z m2857 -46 c0 -2 -7 -6 -15
-10 -8 -3 -15 -1 -15 4 0 6 7 10 15 10 8 0 15 -2 15 -4z m-23 -32 c-3 -3 -12
-4 -19 -1 -8 3 -5 6 6 6 11 1 17 -2 13 -5z m-4446 -584 c4 0 -3 -21 -16 -46
-34 -65 -32 -95 8 -131 65 -57 280 -134 470 -169 160 -30 282 -24 517 25 309
64 642 152 874 231 103 35 124 37 133 13 3 -10 21 -39 40 -64 18 -26 33 -50
33 -53 0 -12 -31 -21 -340 -103 -380 -100 -509 -130 -755 -173 -66 -12 -139
-25 -162 -31 -23 -5 -61 -9 -85 -9 -42 0 -321 56 -428 86 -87 24 -318 113
-402 156 -73 36 -78 40 -78 71 0 39 22 75 93 151 39 41 61 57 72 52 9 -3 21
-6 26 -6z m-172 -356 c23 -20 39 -40 34 -44 -4 -4 -29 -14 -54 -22 -38 -13
-49 -14 -70 -2 -13 7 -49 14 -79 14 l-55 1 35 30 c78 68 128 74 189 23z m7190
-120 c164 -86 213 -115 209 -123 -6 -15 -147 -137 -256 -222 -126 -98 -362
-258 -460 -310 l-64 -34 -171 88 c-273 140 -477 251 -477 260 0 5 8 11 18 14
9 2 249 91 532 198 283 107 521 194 529 194 8 1 71 -29 140 -65z m-6959 35
c23 -8 28 -14 19 -19 -15 -8 -153 -56 -204 -71 l-30 -8 30 22 c16 12 48 36 70
54 44 35 66 39 115 22z m3883 -236 c-21 -16 -32 -16 -60 0 -20 11 -17 12 28
12 42 0 47 -2 32 -12z m97 -55 c0 -5 -9 -4 -20 2 -11 6 -20 12 -20 14 0 2 9 2
20 -1 11 -3 20 -9 20 -15z m35 4 c-3 -3 -11 0 -18 7 -9 10 -8 11 6 5 10 -3 15
-9 12 -12z m1653 -283 c216 -112 416 -219 460 -246 l33 -20 -48 -21 c-26 -11
-226 -86 -443 -167 -217 -81 -460 -171 -540 -202 -80 -30 -153 -57 -162 -60
-17 -5 -18 7 -18 164 l0 170 -101 53 c-92 48 -103 51 -127 40 -15 -7 -112 -45
-217 -85 -104 -40 -273 -105 -375 -145 -102 -39 -300 -114 -440 -166 l-254
-96 -108 18 c-105 18 -126 26 -90 37 9 3 109 39 222 80 530 193 747 273 1025
377 165 61 433 161 595 222 162 60 311 116 330 123 19 8 46 14 58 14 13 1 103
-40 200 -90z"/>
<path d="M6025 7770 c17 -5 131 -23 255 -40 212 -29 370 -57 415 -75 43 -17
-51 67 -105 93 l-55 27 -270 2 c-168 1 -259 -2 -240 -7z"/>
<path d="M3995 5311 c-48 -29 -163 -129 -429 -371 -225 -204 -245 -226 -229
-238 42 -32 115 -62 179 -74 93 -18 611 -18 754 0 135 17 279 41 306 52 11 4
74 89 140 189 65 100 149 224 187 277 37 53 67 102 67 109 0 8 -82 18 -277 34
-611 48 -654 50 -698 22z"/>
<path d="M6320 4825 c-85 -24 -310 -124 -310 -137 0 -13 10 -11 146 33 141 45
248 94 239 109 -8 12 -18 12 -75 -5z"/>
<path d="M3280 4550 c-207 -75 -800 -369 -825 -411 -4 -5 56 21 133 60 283
142 736 341 827 364 11 2 -2 5 -30 5 -27 1 -75 -8 -105 -18z"/>
<path d="M5805 3311 c-4 -8 74 -6 82 2 3 3 -13 6 -36 5 -23 0 -43 -3 -46 -7z"/>
<path d="M5708 3263 c7 -3 16 -2 19 1 4 3 -2 6 -13 5 -11 0 -14 -3 -6 -6z"/>
<path d="M5545 3230 c-3 -5 -2 -10 4 -10 5 0 13 5 16 10 3 6 2 10 -4 10 -5 0
-13 -4 -16 -10z"/>
<path d="M5618 3233 c7 -3 16 -2 19 1 4 3 -2 6 -13 5 -11 0 -14 -3 -6 -6z"/>
<path d="M2220 2714 c-95 -20 -211 -37 -272 -41 -62 -3 -108 -10 -108 -16 0
-14 228 -2 320 17 104 22 233 57 245 68 14 13 -6 9 -185 -28z"/>
<path d="M2445 7240 c-3 -6 1 -7 9 -4 18 7 21 14 7 14 -6 0 -13 -4 -16 -10z"/>
<path d="M2358 6019 c-1 -28 0 -53 4 -55 17 -11 56 16 60 43 3 15 9 36 13 46
6 15 1 17 -33 17 l-40 0 -4 -51z"/>
<path d="M2485 6014 c-7 -38 10 -72 20 -41 3 9 7 24 10 32 5 18 -4 45 -15 45
-4 0 -11 -16 -15 -36z"/>
<path d="M2450 5855 c0 -70 12 -84 29 -34 21 59 11 99 -25 99 -2 0 -4 -29 -4
-65z"/>
<path d="M3895 6798 c-11 -36 -11 -78 0 -78 11 0 25 42 25 76 0 17 -19 18 -25
2z"/>
<path d="M3136 6782 c-6 -10 -36 -180 -36 -204 0 -10 6 -18 13 -18 13 0 47
152 47 208 0 22 -14 30 -24 14z"/>
<path d="M4626 6564 c-10 -25 -7 -89 3 -78 14 14 24 81 13 88 -5 3 -13 -1 -16
-10z"/>
<path d="M7573 5191 c-66 -24 -131 -69 -178 -123 -46 -53 -109 -182 -131 -268
-31 -124 3 -312 70 -381 17 -18 25 -29 17 -24 -10 5 -12 4 -7 -4 4 -6 11 -9
16 -6 5 3 14 -1 22 -8 42 -42 189 -60 267 -32 52 18 133 73 129 87 -7 21 -132
60 -200 64 -75 3 -98 12 -146 58 -46 43 -64 89 -64 166 0 145 98 260 221 260
46 0 57 -4 81 -31 16 -16 32 -38 35 -48 7 -24 30 -28 130 -24 131 4 130 4 128
49 -5 69 -44 155 -93 205 -76 77 -188 99 -297 60z"/>
<path d="M7528 4865 c-33 -18 -68 -90 -68 -139 0 -111 91 -153 172 -78 37 35
42 45 45 93 8 104 -68 167 -149 124z"/>
<path d="M9870 4150 c-36 -36 -95 -89 -131 -118 -64 -50 -67 -54 -89 -129
-170 -585 -395 -1052 -749 -1558 -50 -71 -91 -132 -91 -135 0 -3 21 -16 48
-30 26 -13 68 -37 93 -51 l47 -27 89 126 c127 180 145 207 234 355 153 254
326 619 422 892 88 248 166 515 187 638 6 34 13 72 15 85 8 33 -3 26 -75 -48z"/>
<path d="M4715 1860 c-3 -6 1 -7 9 -4 18 7 21 14 7 14 -6 0 -13 -4 -16 -10z"/>
<path d="M4730 1730 c-18 -12 -2 -12 25 0 13 6 15 9 5 9 -8 0 -22 -4 -30 -9z"/>
</g>
</svg>
